# xmcd
#
# Track frame offsets:
#	150
#	16721
#	38037
#	62691
#	80946
#	100245
#	129916
#	146838
#	165188
#	184565
#	207695
#	216487
#	238891
#	262568
#	277010
#	292382
#	312926
#	329765
#
# Disc length: 4709 seconds
#
# Revision: 0
# Processed by: cddbd v1.4PL0 Copyright (c) Steve Scherf et al.
# Submitted via: dBpowerAMP V4.0
#
DISCID=16126312
DTITLE=Crawler - Demo Anthology 1975 to 1978
DYEAR=1900
DGENRE=Classic Rock
TTITLE0=Sweet, Sweet Judy
TTITLE1=Cold, Cold World
TTITLE2=Evening Time
TTITLE3=Sit Down Easy
TTITLE4=Crazy Woman
TTITLE5=The Music's Mine
TTITLE6=Poor Man
TTITLE7=Sweet Sister
TTITLE8=Red Beans And Rice
TTITLE9=Tony's Blues
TTITLE10=Red Beans (instrumental)
TTITLE11=Direct South
TTITLE12=Sail On
TTITLE13=Alone Baby
TTITLE14=How Do You Live Your Life
TTITLE15=Jesus
TTITLE16=1st Class Operator
TTITLE17=Burning In The Fire
EXTD=
EXTT0=
EXTT1=
EXTT2=
EXTT3=
EXTT4=
EXTT5=
EXTT6=
EXTT7=
EXTT8=
EXTT9=
EXTT10=
EXTT11=
EXTT12=
EXTT13=
EXTT14=
EXTT15=
EXTT16=
EXTT17=
PLAYORDER=
